<?xml version="1.0" encoding="iso-8859-1"?>
<!-- Generator: Adobe Illustrator 19.0.0, SVG Export Plug-In . SVG Version: 6.00 Build 0)  -->
<svg version="1.1" id="Capa_1" xmlns="http://www.w3.org/2000/svg" xmlns:xlink="http://www.w3.org/1999/xlink" x="0px" y="0px"
	 viewBox="0 0 480 480" style="enable-background:new 0 0 480 480;" xml:space="preserve">
<g>
	
		<linearGradient id="SVGID_1_" gradientUnits="userSpaceOnUse" x1="-26.875" y1="557.095" x2="-26.875" y2="611.79" gradientTransform="matrix(8 0 0 -8 455 4905)">
		<stop  offset="0" style="stop-color:#006DF0"/>
		<stop  offset="1" style="stop-color:#00E7F0"/>
	</linearGradient>
	<path style="fill:url(#SVGID_1_);" d="M456,28H24C10.745,28,0,38.745,0,52v336c0,13.255,10.745,24,24,24h144v24h-56v16h256v-16h-56
		v-24h144c13.255,0,24-10.745,24-24V52C480,38.745,469.255,28,456,28z M296,436H184v-24h112V436z M464,388c0,4.418-3.582,8-8,8H24
		c-4.418,0-8-3.582-8-8v-24h448V388z M464,348H16V52c0-4.418,3.582-8,8-8h432c4.418,0,8,3.582,8,8V348z"/>
	
		<linearGradient id="SVGID_2_" gradientUnits="userSpaceOnUse" x1="-26.875" y1="557.095" x2="-26.875" y2="611.79" gradientTransform="matrix(8 0 0 -8 455 4905)">
		<stop  offset="0" style="stop-color:#006DF0"/>
		<stop  offset="1" style="stop-color:#00E7F0"/>
	</linearGradient>
	<path style="fill:url(#SVGID_2_);" d="M448,52H32c-4.418,0-8,3.582-8,8v272c0,4.418,3.582,8,8,8h416c4.418,0,8-3.582,8-8V60
		C456,55.582,452.418,52,448,52z M440,324H40V220h72c3.442-0.003,6.496-2.206,7.584-5.472l22.48-67.416L168.16,277.6
		c0.751,3.682,3.963,6.344,7.72,6.4H176c3.727,0.002,6.961-2.569,7.8-6.2l18.488-80.144l14.36,33.496
		c1.741,4.061,6.444,5.941,10.505,4.2c2.178-0.934,3.83-2.786,4.511-5.056l14.784-49.28L264.16,269.6
		c0.873,4.331,5.092,7.135,9.423,6.261c2.976-0.6,5.357-2.833,6.145-5.765l23.472-87.872l17.016,79.448
		c0.921,4.321,5.171,7.078,9.492,6.156c2.839-0.605,5.128-2.701,5.98-5.477l24.072-78.224l8.584,30.072
		c0.978,3.421,4.098,5.784,7.656,5.8h64V324z M440,204h-57.968l-14.336-50.2c-0.974-3.407-4.073-5.766-7.616-5.8
		c-3.504,0.08-6.587,2.334-7.728,5.648l-22.968,74.64l-17.6-81.96c-0.769-3.607-3.905-6.221-7.592-6.328
		c-3.673-0.023-6.911,2.404-7.92,5.936L273.12,232.8l-17.28-86.4c-0.729-3.591-3.804-6.228-7.464-6.4
		c-3.638-0.095-6.9,2.227-8,5.696l-17.664,58.888l-15.32-35.744c-1.737-4.062-6.439-5.947-10.501-4.21
		c-2.35,1.005-4.078,3.072-4.651,5.562L176.56,238l-24.72-123.6c-0.717-3.55-3.73-6.175-7.344-6.4
		c-3.632-0.272-6.975,1.986-8.08,5.456L106.232,204H40V68h400V204z"/>
</g>
<g>
</g>
<g>
</g>
<g>
</g>
<g>
</g>
<g>
</g>
<g>
</g>
<g>
</g>
<g>
</g>
<g>
</g>
<g>
</g>
<g>
</g>
<g>
</g>
<g>
</g>
<g>
</g>
<g>
</g>
</svg>
